<?xml version="1.0" encoding="UTF-8"?>
<svg version="1.1" xmlns="http://www.w3.org/2000/svg" width="1390" height="800">
<path d="M0 0 C458.7 0 917.4 0 1390 0 C1390 264 1390 528 1390 800 C931.3 800 472.6 800 0 800 C0 536 0 272 0 0 Z " fill="#FEFEFE" transform="translate(0,0)"/>
<path d="M0 0 C0.7120459 0.30292969 1.4240918 0.60585938 2.15771484 0.91796875 C3.77344358 1.60816724 5.38700745 2.30343102 7 3 C7 3.66 7 4.32 7 5 C7.53882813 5.09667969 8.07765625 5.19335938 8.6328125 5.29296875 C17.33172731 7.89115948 26.69641501 14.49942798 33 21 C33.99 21.78375 34.98 22.5675 36 23.375 C39.87176294 26.76279257 42.3706736 30.11202079 44 35 C44.825 35.33 45.65 35.66 46.5 36 C47.325 36.33 48.15 36.66 49 37 C49.33 37.99 49.66 38.98 50 40 C50.98560611 41.34400833 51.98758315 42.67607028 53 44 C53.495 44.845625 53.99 45.69125 54.5 46.5625 C55.83051273 49.00532955 55.83051273 49.00532955 57.6875 50.4375 C59.69098986 52.82260698 59.19975567 55.00366495 59 58 C62.21182149 59.90608098 64.53882603 60.22266247 68.25 60.125 C69.14203125 60.10695313 70.0340625 60.08890625 70.953125 60.0703125 C71.62859375 60.04710937 72.3040625 60.02390625 73 60 C73 59.34 73 58.68 73 58 C73.66 58 74.32 58 75 58 C76.48400777 60.35695352 77.01570001 61.68599981 76.875 64.5 C75.40768593 68.69232593 72.61310297 70.59126469 69 73 C68.21011855 74.95385067 68.21011855 74.95385067 67.8125 77.125 C67.544375 78.40375 67.27625 79.6825 67 81 C67.66 81 68.32 81 69 81 C70.75046528 86.82573961 70.33595498 93.03236499 70.375 99.0625 C70.37956207 99.73384979 70.38412415 100.40519958 70.38882446 101.09689331 C70.42098888 114.31015598 69.31182815 127.60390817 62 139 C61.42970248 140.21614728 60.88348033 141.44423767 60.375 142.6875 C59.63134744 144.47902663 58.86747759 146.26504483 58 148 C57.34 148 56.68 148 56 148 C55.34 150.31 54.68 152.62 54 155 C53.34 155 52.68 155 52 155 C51.67 156.32 51.34 157.64 51 159 C50.34 159 49.68 159 49 159 C48.67 160.32 48.34 161.64 48 163 C47.01 163 46.02 163 45 163 C44.67 164.65 44.34 166.3 44 168 C43.34 168 42.68 168 42 168 C42 168.66 42 169.32 42 170 C41.360625 170.103125 40.72125 170.20625 40.0625 170.3125 C39.381875 170.539375 38.70125 170.76625 38 171 C37.67 171.99 37.34 172.98 37 174 C36.195625 174.309375 35.39125 174.61875 34.5625 174.9375 C31.88188641 175.71514424 31.88188641 175.71514424 31.10546875 177.86328125 C26.57548827 186.61910924 8.60270983 194.1085893 0 198 C-2.6875 197.625 -2.6875 197.625 -5 197 C-5.99 197.33 -6.98 197.66 -8 198 C-7.34 198.66 -6.68 199.32 -6 200 C-14.82210016 203.65664514 -22.35898019 206.39351101 -32 206 C-32 206.33 -32 206.66 -32 207 C-46.85 207 -61.7 207 -77 207 C-77.33 206.34 -77.66 205.68 -78 205 C-83.5758241 203.93650471 -83.5758241 203.93650471 -89 205 C-90.9375 204.125 -90.9375 204.125 -93 203 C-94.3242287 202.63215869 -95.65613912 202.28797019 -97 202 C-97 201.01 -97 200.02 -97 199 C-98.175625 199.061875 -99.35125 199.12375 -100.5625 199.1875 C-105.8062659 199.20612794 -109.36027752 197.31986124 -114 195 C-114 194.34 -114 193.68 -114 193 C-114.99 193.33 -115.98 193.66 -117 194 C-118.36733028 193.04701223 -119.70264493 192.04625409 -121 191 C-121.66 191 -122.32 191 -123 191 C-123 190.34 -123 189.68 -123 189 C-123.66 188.67 -124.32 188.34 -125 188 C-125.763125 187.525625 -126.52625 187.05125 -127.3125 186.5625 C-129.89982729 184.94059632 -129.89982729 184.94059632 -132.5625 184.125 C-135.69902113 182.67737486 -137.08581873 180.8358241 -139 178 C-139 177.34 -139 176.68 -139 176 C-139.55558594 175.74863281 -140.11117187 175.49726563 -140.68359375 175.23828125 C-143.38517741 173.79409572 -145.65746595 172.08468372 -148.0625 170.1875 C-149.34833984 169.18783203 -149.34833984 169.18783203 -150.66015625 168.16796875 C-153.05758398 165.9466459 -154.43149983 163.84529756 -156 161 C-156.474375 160.54625 -156.94875 160.0925 -157.4375 159.625 C-160.09964498 156.85636922 -163 152.89772819 -163 149 C-163.66 149 -164.32 149 -165 149 C-170.48112238 138.57835909 -174.40856599 128.86965338 -176.5703125 117.2265625 C-176.95484802 115.05784985 -176.95484802 115.05784985 -177.51416016 113.20556641 C-180.35969397 100.28770083 -180.06380679 79.12761358 -174 67 C-173.34 67 -172.68 67 -172 67 C-171.979375 65.7625 -171.95875 64.525 -171.9375 63.25 C-171.12790629 55.7255408 -166.60444268 49.24683868 -161.95703125 43.453125 C-159.97557184 41.08613733 -159.97557184 41.08613733 -158.578125 38.59375 C-156.58484434 35.31766495 -154.21943624 32.4209927 -151.75 29.5 C-151.26200928 28.92121094 -150.77401855 28.34242188 -150.27124023 27.74609375 C-146.84130638 23.76725719 -143.40794574 20.87865844 -139 18 C-138.401875 17.175 -137.80375 16.35 -137.1875 15.5 C-134.39782883 12.31180438 -131.43915372 11.08717524 -127.63671875 9.31640625 C-125.10681204 8.0533269 -122.92468744 6.63784661 -120.625 5 C-115.43167616 1.43416145 -109.86105385 -0.75856338 -104 -3 C-103.12601563 -3.3609375 -102.25203125 -3.721875 -101.3515625 -4.09375 C-93.44332269 -7.22854776 -85.3527216 -8.61522989 -77 -10 C-76.06663818 -10.17345947 -75.13327637 -10.34691895 -74.17163086 -10.52563477 C-48.69378609 -14.33623075 -23.40662196 -9.98956599 0 0 Z " fill="#96BEF3" transform="translate(769,263)"/>
<path d="M0 0 C2.16874252 0.50603992 3.99967627 0.99983813 6 2 C6 1.34 6 0.68 6 0 C8.375 -0.125 8.375 -0.125 11 0 C11.66 0.66 12.32 1.32 13 2 C15.68839385 2.26991906 18.29141936 2.08737357 21 2 C21 2.66 21 3.32 21 4 C26.445 4.495 26.445 4.495 32 5 C32 4.67 32 4.34 32 4 C34.97 4 37.94 4 41 4 C41.495 4.99 41.495 4.99 42 6 C43.08667969 5.98259766 43.08667969 5.98259766 44.1953125 5.96484375 C50.41330529 5.90680915 56.04943004 6.01647668 62 8 C63.19625 8 64.3925 8 65.625 8 C66.73875 8 67.8525 8 69 8 C69.495 8.495 69.495 8.495 70 9 C72.77558423 9.28479122 75.55127845 9.44843019 78.3359375 9.62109375 C81 10 81 10 84 12 C86.01265527 12.67088509 88.03389795 13.31649937 90.0625 13.9375 C93 15 93 15 95 17 C95 15.68 95 14.36 95 13 C106.45872162 5.53850685 121.4218617 2.45296709 135 3 C135.99 3.495 135.99 3.495 137 4 C137 4.66 137 5.32 137 6 C138.2065625 5.9071875 138.2065625 5.9071875 139.4375 5.8125 C144.67082592 6.08793821 150.21037688 7.21037688 154 11 C154.33 11.99 154.66 12.98 155 14 C155.99 14.495 155.99 14.495 157 15 C156.01 16.32 155.02 17.64 154 19 C155.1725131 18.04882866 156.33787015 17.08882991 157.5 16.125 C158.1496875 15.59132813 158.799375 15.05765625 159.46875 14.5078125 C160.22671875 13.76144531 160.22671875 13.76144531 161 13 C161 12.34 161 11.68 161 11 C162.65 11 164.3 11 166 11 C165.67 10.34 165.34 9.68 165 9 C165.61488281 9.02320313 166.22976563 9.04640625 166.86328125 9.0703125 C168.07564453 9.09738281 168.07564453 9.09738281 169.3125 9.125 C170.51326172 9.15980469 170.51326172 9.15980469 171.73828125 9.1953125 C174.28388576 9.15817322 174.28388576 9.15817322 177 7 C178.95996094 6.82055664 178.95996094 6.82055664 181.234375 6.91015625 C182.10376709 6.93207031 182.97315918 6.95398438 183.86889648 6.9765625 C184.81966064 7.00492187 185.7704248 7.03328125 186.75 7.0625 C198.08420204 7.25384113 209.19061043 6.28985497 220.43847656 5.06665039 C226.66640382 4.39537919 232.73466891 3.80990146 239 4 C236.64502397 9.15151006 233.00290528 11.65860374 228 14 C225.62675992 14.58083122 223.44716462 14.80023146 221 15 C220.67 15.33 220.34 15.66 220 16 C213.36019823 17.2088528 206.67414642 17.34677658 199.94335938 17.60546875 C198.64688477 17.66154297 198.64688477 17.66154297 197.32421875 17.71875 C196.54135498 17.74904297 195.75849121 17.77933594 194.9519043 17.81054688 C192.92140525 17.88983314 192.92140525 17.88983314 191 19 C202.22 19 213.44 19 225 19 C222.58247271 23.83505458 221.25761067 24.36068579 216.41796875 26.18359375 C209.10391727 27.93060719 201.48953217 27.84621084 194 28 C197.01903711 28.80489089 199.61851889 29.10855119 202.75 29.0625 C203.94882812 29.04896484 203.94882812 29.04896484 205.171875 29.03515625 C205.77515625 29.02355469 206.3784375 29.01195312 207 29 C206.6875 30.875 206.6875 30.875 206 33 C201.1158521 36.2560986 195.84208287 36.53001005 190.109375 35.4609375 C187.37260433 34.72066347 184.68807126 33.90023044 182 33 C180.783125 32.608125 179.56625 32.21625 178.3125 31.8125 C177.1678125 31.4103125 177.1678125 31.4103125 176 31 C177.58074564 31.81752303 179.16471223 32.62881997 180.75 33.4375 C181.63171875 33.88996094 182.5134375 34.34242188 183.421875 34.80859375 C185.64198566 35.83455398 187.61444619 36.51508603 190 37 C189.67 38.32 189.34 39.64 189 41 C182.19796625 41.37634203 177.24309927 40.77471079 171 38 C173.1385485 40.1385485 174.13275314 40.42655063 177 41 C177 41.66 177 42.32 177 43 C175.5209084 43.16733157 174.04172444 43.33384686 172.5625 43.5 C171.73878906 43.5928125 170.91507813 43.685625 170.06640625 43.78125 C168 44 168 44 167 44 C167 44.66 167 45.32 167 46 C168.32 45.67 169.64 45.34 171 45 C171.68104759 54.19414243 168.53304111 61.67685736 163 69 C162.59265625 69.57492187 162.1853125 70.14984375 161.765625 70.7421875 C155.02061287 79.57133259 144.61117836 82.40461304 134 84 C120.45297535 85.19725521 106.41460599 82.60973733 95 75 C93.1875 73.4375 93.1875 73.4375 92 72 C92 71.34 92 70.68 92 70 C91.01 70 90.02 70 89 70 C87.95107762 68.36368108 86.95093297 66.69514137 86 65 C85.34 64.67 84.68 64.34 84 64 C83.5859375 61.93359375 83.5859375 61.93359375 83.375 59.4375 C83.30023437 58.61121094 83.22546875 57.78492188 83.1484375 56.93359375 C83.09945312 56.29550781 83.05046875 55.65742188 83 55 C82.34 55 81.68 55 81 55 C80.875 48.375 80.875 48.375 82 45 C80.7625 44.855625 79.525 44.71125 78.25 44.5625 C75.43495501 44.21311498 72.7298503 43.79620634 70 43 C70 42.34 70 41.68 70 41 C69.01 41.495 69.01 41.495 68 42 C61.46666667 42.23333333 61.46666667 42.23333333 59 41 C59 40.01 59 39.02 59 38 C64.445 36.02 64.445 36.02 70 34 C69.09636719 34.28875 68.19273437 34.5775 67.26171875 34.875 C66.08222656 35.24625 64.90273438 35.6175 63.6875 36 C62.51574219 36.37125 61.34398437 36.7425 60.13671875 37.125 C57 38 57 38 54 38 C54 37.34 54 36.68 54 36 C53.39671875 35.95101562 52.7934375 35.90203125 52.171875 35.8515625 C51.37265625 35.77679688 50.5734375 35.70203125 49.75 35.625 C48.96109375 35.55539062 48.1721875 35.48578125 47.359375 35.4140625 C44.914123 34.98492887 43.15163097 34.21399362 41 33 C41.495 32.01 41.495 32.01 42 31 C44.29375229 30.42003735 46.61179317 29.93444676 48.9375 29.5 C53.99510019 28.77725944 53.99510019 28.77725944 58 26 C57.02546875 26.15855469 56.0509375 26.31710937 55.046875 26.48046875 C43.9946219 28.04389048 32.04245188 28.45958694 22 23 C20 21 20 21 19 18 C18.67 18.66 18.34 19.32 18 20 C17.34 19.34 16.68 18.68 16 18 C16.375 15.875 16.375 15.875 17 14 C16.00097656 13.54109375 15.00195312 13.0821875 13.97265625 12.609375 C12.66891492 11.99033235 11.36554866 11.37049936 10.0625 10.75 C9.40314453 10.44964844 8.74378906 10.14929688 8.06445312 9.83984375 C3.21070063 7.50008614 3.21070063 7.50008614 2.05859375 4.765625 C2.03925781 4.18296875 2.01992188 3.6003125 2 3 C1.34 3 0.68 3 0 3 C0 2.01 0 1.02 0 0 Z " fill="#FBFCFD" transform="translate(604,320)"/>
<path d="M0 0 C0 0.66 0 1.32 0 2 C0.66 2.66 1.32 3.32 2 4 C4.46980973 9.66603409 5.23791929 14.53707721 5.3125 20.6875 C5.34150391 21.46544922 5.37050781 22.24339844 5.40039062 23.04492188 C5.46562247 29.06130547 4.01347965 32.79922152 1 38 C0.34 38 -0.32 38 -1 38 C-1.33 38.99 -1.66 39.98 -2 41 C-6.87666981 43.27931306 -11.48874981 43.27323221 -16.75 43.1875 C-17.51699219 43.18685547 -18.28398438 43.18621094 -19.07421875 43.18554688 C-24.71817801 43.14091099 -24.71817801 43.14091099 -27 42 C-27 41.34 -27 40.68 -27 40 C-27.99 39.67 -28.98 39.34 -30 39 C-35.85256943 31.08380782 -36.64257808 22.01078242 -35.625 12.4921875 C-34.46407817 6.12162894 -33.10406772 1.88042614 -27.81640625 -2.046875 C-18.97969938 -6.68377065 -8.43603695 -4.18069088 0 0 Z " fill="#94BDF3" transform="translate(746,344)"/>
<path d="M0 0 C4.22676249 -0.08173298 7.17995744 0.08997872 11 2 C11.66 2.66 12.32 3.32 13 4 C16.08347826 4.16681109 16.08347826 4.16681109 19 4 C20.58645357 7.17290713 20.12078213 10.58825384 20.09765625 14.0703125 C20.0962413 14.86654022 20.09482635 15.66276794 20.09336853 16.48312378 C20.08776345 19.0304538 20.07521014 21.57769647 20.0625 24.125 C20.05748565 25.85025915 20.05292263 27.57551967 20.04882812 29.30078125 C20.03779237 33.53388791 20.02052436 37.76692914 20 42 C16.71646451 43.64176774 13.10480362 43.18454039 9.5 43.1875 C8.71496094 43.19974609 7.92992187 43.21199219 7.12109375 43.22460938 C5.07936274 43.22986254 3.03807749 43.1222018 1 43 C-1 41 -1 41 -1.13525391 37.00927734 C-1.09286195 35.28454051 -1.03917982 33.56005852 -0.9765625 31.8359375 C-0.95153656 30.92872955 -0.92651062 30.02152161 -0.90072632 29.08682251 C-0.81839936 26.18250866 -0.72185934 23.27886205 -0.625 20.375 C-0.56677339 18.40888163 -0.50946985 16.44273569 -0.453125 14.4765625 C-0.31280169 9.65065627 -0.15972802 4.82530138 0 0 Z " fill="#FDFDFE" transform="translate(650,360)"/>
<path d="M0 0 C11.22 0 22.44 0 34 0 C33.67 1.65 33.34 3.3 33 5 C28.80172482 7.79885012 24.69585756 6.83227394 20 6 C18.94941406 5.82855469 17.89882813 5.65710938 16.81640625 5.48046875 C13.87542036 4.99896458 10.93716405 4.50421316 8 4 C8 3.34 8 2.68 8 2 C5.36 2 2.72 2 0 2 C0 1.34 0 0.68 0 0 Z " fill="#EFF1F4" transform="translate(666,324)"/>
<path d="M0 0 C5.00720707 1.51984544 10.01939089 1.20320573 15.203125 1.08984375 C17.15487258 1.05533348 19.10670391 1.02521136 21.05859375 1 C21.91477295 0.98203369 22.77095215 0.96406738 23.65307617 0.94555664 C25.92682836 1.02426977 27.84004628 1.38595184 30.015625 2.02734375 C30.015625 2.68734375 30.015625 3.34734375 30.015625 4.02734375 C24.06340275 5.43134229 18.06391897 5.25039628 11.98583984 5.26757812 C9.88990515 5.27734711 7.79492645 5.30844003 5.69921875 5.33984375 C4.36458912 5.34636888 3.02995253 5.35162127 1.6953125 5.35546875 C0.48601074 5.36481445 -0.72329102 5.37416016 -1.96923828 5.38378906 C-4.984375 5.02734375 -4.984375 5.02734375 -6.90185547 3.63183594 C-7.984375 2.02734375 -7.984375 2.02734375 -7.984375 0.02734375 C-4.81258787 -0.93380387 -3.19455624 -1.04115773 0 0 Z " fill="#99A4B1" transform="translate(632.984375,334.97265625)"/>
<path d="M0 0 C2.64 0.33 5.28 0.66 8 1 C8 1.66 8 2.32 8 3 C6.02 3 4.04 3 2 3 C2 16.53 2 30.06 2 44 C1.34 44 0.68 44 0 44 C0 29.48 0 14.96 0 0 Z " fill="#ADAEB0" transform="translate(648,357)"/>
<path d="M0 0 C-1.28913487 0.67154933 -2.58140204 1.33708859 -3.875 2 C-4.59429688 2.37125 -5.31359375 2.7425 -6.0546875 3.125 C-8 4 -8 4 -10 4 C-10 5.32 -10 6.64 -10 8 C-12 7.33333333 -14 6.66666667 -16 6 C-16 5.34 -16 4.68 -16 4 C-16.763125 4.20625 -17.52625 4.4125 -18.3125 4.625 C-21 5 -21 5 -24 3 C-24 2.67 -24 2.34 -24 2 C-25.65 1.67 -27.3 1.34 -29 1 C-29 0.67 -29 0.34 -29 0 C-28.11699219 0.10699219 -27.23398437 0.21398437 -26.32421875 0.32421875 C-18.98814116 1.05703853 -13.26263695 1.04452204 -6.3046875 -1.50390625 C-3.47279841 -2.11348238 -2.3900911 -1.53648714 0 0 Z " fill="#ABC5E2" transform="translate(709,329)"/>
<path d="M0 0 C0.66 0 1.32 0 2 0 C1.58272066 11.76727736 -1.43582826 21.66653819 -7 32 C-7.66 32 -8.32 32 -9 32 C-8.69078116 30.54096742 -8.37751201 29.08279278 -8.0625 27.625 C-7.88847656 26.81289063 -7.71445312 26.00078125 -7.53515625 25.1640625 C-7 23 -7 23 -6 21 C-5.34 21 -4.68 21 -4 21 C-3.896875 19.948125 -3.79375 18.89625 -3.6875 17.8125 C-2.94805734 11.77734301 -1.43040204 5.90153295 0 0 Z " fill="#B3B7BC" transform="translate(836,375)"/>
<path d="M0 0 C0 0.66 0 1.32 0 2 C-0.99 2.66 -1.98 3.32 -3 4 C-3 4.33 -3 4.66 -3 5 C-7.09338652 5.04939115 -11.18665798 5.08571501 -15.28027344 5.10986328 C-16.67320781 5.11992877 -18.06612102 5.13358234 -19.45898438 5.15087891 C-21.4595436 5.1751022 -23.46025615 5.18540814 -25.4609375 5.1953125 C-26.66540527 5.20578613 -27.86987305 5.21625977 -29.11083984 5.22705078 C-32 5 -32 5 -34 3 C-31.12101606 2.19134723 -28.46576825 1.83583278 -25.48046875 1.71875 C-24.62259766 1.68136719 -23.76472656 1.64398438 -22.88085938 1.60546875 C-21.99205078 1.57066406 -21.10324219 1.53585937 -20.1875 1.5 C-13.4534571 1.23281534 -6.6930799 0 0 0 Z " fill="#8C9EB6" transform="translate(827,335)"/>
<path d="M0 0 C2.6875 0.3125 2.6875 0.3125 5 1 C3.66666667 1.66666667 2.33333333 2.33333333 1 3 C0.071875 3.495 -0.85625 3.99 -1.8125 4.5 C-8.31563325 7.560298 -13.93008838 8.28856782 -21 8 C-21 8.33 -21 8.66 -21 9 C-27.625 9.25 -27.625 9.25 -31 7 C-29.47632813 6.81824219 -29.47632813 6.81824219 -27.921875 6.6328125 C-23.6114558 6.11220002 -19.30510683 5.56273967 -15 5 C-13.80246094 4.84402344 -12.60492187 4.68804687 -11.37109375 4.52734375 C-9.79521484 4.29724609 -9.79521484 4.29724609 -8.1875 4.0625 C-6.78564453 3.86333984 -6.78564453 3.86333984 -5.35546875 3.66015625 C-2.71427799 2.91992202 -1.84780872 1.94449638 0 0 Z " fill="#A8ABB0" transform="translate(758,461)"/>
<path d="M0 0 C0 0.33 0 0.66 0 1 C-3.66614909 1.33919096 -7.3329879 1.67028081 -11 2 C-12.02996094 2.09539062 -13.05992187 2.19078125 -14.12109375 2.2890625 C-19.77478726 2.79321351 -25.32414798 3.109151 -31 3 C-31 2.01 -31 1.02 -31 0 C-20.5082826 -0.9209031 -10.44324475 -1.54714737 0 0 Z " fill="#8E9298" transform="translate(835,324)"/>
<path d="M0 0 C0.99 0 1.98 0 3 0 C3 0.66 3 1.32 3 2 C7.62 1.67 12.24 1.34 17 1 C17 1.33 17 1.66 17 2 C15.35 2.33 13.7 2.66 12 3 C14.475 3.495 14.475 3.495 17 4 C17 4.33 17 4.66 17 5 C14.85473901 5.19393875 12.70876323 5.37998676 10.5625 5.5625 C8.77005859 5.71912109 8.77005859 5.71912109 6.94140625 5.87890625 C5.97074219 5.91886719 5.00007812 5.95882813 4 6 C3.67 5.67 3.34 5.34 3 5 C1.48071962 4.92820036 -0.04167482 4.91607993 -1.5625 4.9375 C-2.80193359 4.95103516 -2.80193359 4.95103516 -4.06640625 4.96484375 C-5.02353516 4.98224609 -5.02353516 4.98224609 -6 5 C-6 4.01 -6 3.02 -6 2 C-4.02 2 -2.04 2 0 2 C0 1.34 0 0.68 0 0 Z " fill="#9AA8B9" transform="translate(663,324)"/>
<path d="M0 0 C0.66 0.33 1.32 0.66 2 1 C0.52758177 3.94483646 -1.82641311 4.27708447 -4.7890625 5.3359375 C-7.85812725 6.2577414 -10.81546031 6.66827712 -14 7 C-14 6.34 -14 5.68 -14 5 C-15.65 5 -17.3 5 -19 5 C-19 4.67 -19 4.34 -19 4 C-17.87980469 3.79503906 -16.75960937 3.59007812 -15.60546875 3.37890625 C-14.13279176 3.10688311 -12.66013664 2.83474151 -11.1875 2.5625 C-10.44951172 2.42779297 -9.71152344 2.29308594 -8.95117188 2.15429688 C-5.88684924 1.58580263 -2.96071047 0.98690349 0 0 Z " fill="#E2EEFB" transform="translate(672,351)"/>
<path d="M0 0 C1.65 0 3.3 0 5 0 C5 1.32 5 2.64 5 4 C2.64575325 4.02726927 0.29183038 4.04696719 -2.0625 4.0625 C-4.02896484 4.07990234 -4.02896484 4.07990234 -6.03515625 4.09765625 C-9.8163519 4.00452335 -13.27920707 3.61448726 -17 3 C-17 2.67 -17 2.34 -17 2 C-11.39 2 -5.78 2 0 2 C0 1.34 0 0.68 0 0 Z " fill="#B2BBC6" transform="translate(799,324)"/>
<path d="M0 0 C0.66 0.33 1.32 0.66 2 1 C0.75539217 1.67667998 -0.49596896 2.34094719 -1.75 3 C-2.44609375 3.37125 -3.1421875 3.7425 -3.859375 4.125 C-6 5 -6 5 -10 5 C-10 6.32 -10 7.64 -10 9 C-12.31 8.67 -14.62 8.34 -17 8 C-16.67 7.01 -16.34 6.02 -16 5 C-13.41796875 4.12109375 -13.41796875 4.12109375 -10.1875 3.4375 C-5.83064996 2.51995753 -5.83064996 2.51995753 -1.73828125 0.84765625 C-1.16464844 0.56792969 -0.59101562 0.28820312 0 0 Z " fill="#7F91A6" transform="translate(673,353)"/>
<path d="M0 0 C0.33 0.66 0.66 1.32 1 2 C0.06553465 4.03144641 -0.93224776 6.03533587 -2 8 C-2.66 8 -3.32 8 -4 8 C-4.33 8.99 -4.66 9.98 -5 11 C-8.0625 12.1875 -8.0625 12.1875 -11 13 C-11.33 12.34 -11.66 11.68 -12 11 C-10.576875 10.6596875 -10.576875 10.6596875 -9.125 10.3125 C-5.84241868 9.31871416 -5.84241868 9.31871416 -4.6875 6.5625 C-4.460625 5.716875 -4.23375 4.87125 -4 4 C-3.67 3.01 -3.34 2.02 -3 1 C-2.01 0.67 -1.02 0.34 0 0 Z " fill="#A9ACB0" transform="translate(749,374)"/>
<path d="M0 0 C-6.36539272 2.11293829 -12.31006781 3.46048934 -19 4 C-19.33 3.01 -19.66 2.02 -20 1 C-19.02417969 0.93941406 -18.04835938 0.87882812 -17.04296875 0.81640625 C-15.77066406 0.73261719 -14.49835937 0.64882813 -13.1875 0.5625 C-11.92292969 0.48128906 -10.65835938 0.40007812 -9.35546875 0.31640625 C-1.323049 -0.44101633 -1.323049 -0.44101633 0 0 Z " fill="#828486" transform="translate(662,348)"/>
<path d="M0 0 C0.66 0.33 1.32 0.66 2 1 C1.67 2.65 1.34 4.3 1 6 C0.34 6 -0.32 6 -1 6 C-1 6.66 -1 7.32 -1 8 C-1.639375 8.103125 -2.27875 8.20625 -2.9375 8.3125 C-3.9584375 8.6528125 -3.9584375 8.6528125 -5 9 C-5.33 9.99 -5.66 10.98 -6 12 C-6.66 11.67 -7.32 11.34 -8 11 C-6.19587357 7.73539027 -5.16605307 6.11070205 -2 4 C-0.80767387 1.94996045 -0.80767387 1.94996045 0 0 Z " fill="#A2A5AA" transform="translate(812,425)"/>
<path d="M0 0 C1.17949219 0.01804687 2.35898437 0.03609375 3.57421875 0.0546875 C4.92966797 0.08949219 4.92966797 0.08949219 6.3125 0.125 C6.3125 0.785 6.3125 1.445 6.3125 2.125 C4.58435839 2.32172365 2.85490803 2.50696799 1.125 2.6875 C0.16207031 2.79191406 -0.80085937 2.89632813 -1.79296875 3.00390625 C-4.62983377 3.12258751 -6.94173671 2.80265639 -9.6875 2.125 C-6.05554504 -0.29630331 -4.30400652 -0.08522785 0 0 Z " fill="#A1B8D4" transform="translate(804.6875,346.875)"/>
<path d="M0 0 C0 0.33 0 0.66 0 1 C-5.80766296 2.5056904 -10.9981863 3.21824777 -17 3 C-17 2.34 -17 1.68 -17 1 C-15.10630916 0.63455089 -13.20991218 0.28310825 -11.3125 -0.0625 C-10.25675781 -0.25972656 -9.20101562 -0.45695312 -8.11328125 -0.66015625 C-5.08840784 -0.99034946 -2.92019489 -0.77474558 0 0 Z " fill="#CFD9E4" transform="translate(665,346)"/>
<path d="M0 0 C0.99 0 1.98 0 3 0 C3 0.99 3 1.98 3 3 C2.34 3 1.68 3 1 3 C0.67 4.32 0.34 5.64 0 7 C-0.66 7 -1.32 7 -2 7 C-2.33 8.32 -2.66 9.64 -3 11 C-3.99 10.67 -4.98 10.34 -6 10 C-4.68 7.69 -3.36 5.38 -2 3 C-1.34 3 -0.68 3 0 3 C0 2.01 0 1.02 0 0 Z " fill="#9CA0A4" transform="translate(820,415)"/>
<path d="M0 0 C0.57234375 0.37898438 1.1446875 0.75796875 1.734375 1.1484375 C0.44524013 1.81998683 -0.84702704 2.48552609 -2.140625 3.1484375 C-2.85992188 3.5196875 -3.57921875 3.8909375 -4.3203125 4.2734375 C-6.265625 5.1484375 -6.265625 5.1484375 -8.265625 5.1484375 C-8.595625 6.4684375 -8.925625 7.7884375 -9.265625 9.1484375 C-9.595625 7.4984375 -9.925625 5.8484375 -10.265625 4.1484375 C-9.0293082 3.25420836 -7.77590938 2.38355859 -6.515625 1.5234375 C-5.81953125 1.03617187 -5.1234375 0.54890625 -4.40625 0.046875 C-2.265625 -0.8515625 -2.265625 -0.8515625 0 0 Z " fill="#A0A4AA" transform="translate(707.265625,327.8515625)"/>
<path d="M0 0 C0 0.66 0 1.32 0 2 C-5.08086796 2.84681133 -9.84828377 3.09038099 -15 3 C-15 2.67 -15 2.34 -15 2 C-13.25364835 1.46706165 -11.50272348 0.94909337 -9.75 0.4375 C-8.77546875 0.14746094 -7.8009375 -0.14257812 -6.796875 -0.44140625 C-4.03756068 -0.99249836 -2.6087176 -0.93789609 0 0 Z " fill="#EDF4FC" transform="translate(842,321)"/>
<path d="M0 0 C0.66 0 1.32 0 2 0 C3.57035335 2.49409061 4.0274945 3.70443416 3.75 6.6875 C3.5025 7.450625 3.255 8.21375 3 9 C2.01 9.495 2.01 9.495 1 10 C-0.04449911 6.86650268 0.06576355 6.01031744 1 3 C-1.64 3 -4.28 3 -7 3 C-7 2.67 -7 2.34 -7 2 C-4.69 2 -2.38 2 0 2 C0 1.34 0 0.68 0 0 Z " fill="#7E8B9E" transform="translate(842,321)"/>
<path d="M0 0 C5.28 0 10.56 0 16 0 C16 0.33 16 0.66 16 1 C11.05 1.66 6.1 2.32 1 3 C0.67 2.01 0.34 1.02 0 0 Z " fill="#989A9D" transform="translate(711,324)"/>
<path d="M0 0 C0.99 0.33 1.98 0.66 3 1 C2.67 1.66 2.34 2.32 2 3 C1.34 3 0.68 3 0 3 C-0.2475 3.61875 -0.495 4.2375 -0.75 4.875 C-2.22047178 7.37480203 -3.41403076 7.83316022 -6 9 C-5.18914873 7.68648079 -4.37626942 6.37421332 -3.5625 5.0625 C-3.11003906 4.33160156 -2.65757812 3.60070312 -2.19140625 2.84765625 C-1 1 -1 1 0 0 Z " fill="#95989E" transform="translate(801,436)"/>
<path d="M0 0 C0.66 0 1.32 0 2 0 C1.67 3.96 1.34 7.92 1 12 C0.34 12 -0.32 12 -1 12 C-1.14285714 3.42857143 -1.14285714 3.42857143 0 0 Z " fill="#D2D5D9" transform="translate(836,375)"/>
<path d="M0 0 C0.66 1.32 1.32 2.64 2 4 C0.68 4.99 -0.64 5.98 -2 7 C-2.66 6.67 -3.32 6.34 -4 6 C-4 4.68 -4 3.36 -4 2 C-2.68 1.34 -1.36 0.68 0 0 Z " fill="#AEB2B7" transform="translate(684,355)"/>
<path d="M0 0 C0.99 0.33 1.98 0.66 3 1 C2.04882866 2.1725131 1.08882991 3.33787015 0.125 4.5 C-0.40867187 5.1496875 -0.94234375 5.799375 -1.4921875 6.46875 C-1.98976563 6.9740625 -2.48734375 7.479375 -3 8 C-3.66 8 -4.32 8 -5 8 C-3.62845496 5.04590299 -2.01136276 2.55991624 0 0 Z " fill="#A5A6A8" transform="translate(763,331)"/>
<path d="M0 0 C-2.46598569 2.46598569 -4.79033355 3.65194009 -8 5 C-10.375 4.6875 -10.375 4.6875 -12 4 C-7.81413519 0.81076967 -5.29441695 -0.50423019 0 0 Z " fill="#94969A" transform="translate(777,456)"/>
<path d="M0 0 C4.38889325 0.66498383 7.9811485 2.18757677 12 4 C11.34 4.66 10.68 5.32 10 6 C3.47692308 4.52307692 3.47692308 4.52307692 1.0625 1.875 C0.711875 1.25625 0.36125 0.6375 0 0 Z " fill="#B3CFF4" transform="translate(771,356)"/>
<path d="M0 0 C2.97 0.33 5.94 0.66 9 1 C8.67 1.99 8.34 2.98 8 4 C3.545 3.01 3.545 3.01 -1 2 C-0.67 1.34 -0.34 0.68 0 0 Z " fill="#A7CDF6" transform="translate(649,355)"/>
<path d="M0 0 C0 0.66 0 1.32 0 2 C-3.96 2 -7.92 2 -12 2 C-12 1.34 -12 0.68 -12 0 C-7.74433453 -1.16063604 -4.3164922 -0.76173392 0 0 Z " fill="#C2C6CA" transform="translate(663,337)"/>
<path d="M0 0 C1.65 0.33 3.3 0.66 5 1 C5 2.65 5 4.3 5 6 C2.03 5.505 2.03 5.505 -1 5 C-1 4.34 -1 3.68 -1 3 C-0.01 3 0.98 3 2 3 C2 2.34 2 1.68 2 1 C1.34 0.67 0.68 0.34 0 0 Z " fill="#B0BECF" transform="translate(825,334)"/>
<path d="M0 0 C0 0.33 0 0.66 0 1 C-1.95689659 1.22142255 -3.91561952 1.4267568 -5.875 1.625 C-7.51082031 1.79902344 -7.51082031 1.79902344 -9.1796875 1.9765625 C-10.57574219 1.98816406 -10.57574219 1.98816406 -12 2 C-12.66 1.34 -13.32 0.68 -14 0 C-8.97703996 -1.13016601 -5.02125926 -0.77916092 0 0 Z " fill="#A2A6AC" transform="translate(785,328)"/>
<path d="M0 0 C2 3 2 3 1.625 5.6875 C1.41875 6.450625 1.2125 7.21375 1 8 C-0.32 8.33 -1.64 8.66 -3 9 C-3.26218749 5.85375007 -3.24754367 4.38162983 -1.5 1.6875 C-1.005 1.130625 -0.51 0.57375 0 0 Z " fill="#A0B0C5" transform="translate(842,325)"/>
<path d="M0 0 C0.66 0.99 1.32 1.98 2 3 C-0.64738916 4.4606285 -1.89448334 5 -5 5 C-5 4.01 -5 3.02 -5 2 C-3.35 1.34 -1.7 0.68 0 0 Z " fill="#D8E8FA" transform="translate(679,358)"/>
<path d="M0 0 C0 0.66 0 1.32 0 2 C-1.66611905 2.042721 -3.33382885 2.04063832 -5 2 C-5.33 1.67 -5.66 1.34 -6 1 C-7.99958364 0.95919217 -10.00045254 0.95745644 -12 1 C-12 0.67 -12 0.34 -12 0 C-7.74433453 -1.16063604 -4.3164922 -0.76173392 0 0 Z " fill="#C3CBD4" transform="translate(746,324)"/>
<path d="M0 0 C-2.35277269 2.72426311 -4.62496331 3.8141763 -8 5 C-8 4.01 -8 3.02 -8 2 C-3.71900826 -1.23966942 -3.71900826 -1.23966942 0 0 Z " fill="#9B9EA2" transform="translate(795,445)"/>
<path d="M0 0 C1.98 0.495 1.98 0.495 4 1 C4 1.99 4 2.98 4 4 C3.01 4.495 3.01 4.495 2 5 C1.67 5.66 1.34 6.32 1 7 C0.34 6.34 -0.32 5.68 -1 5 C-0.625 2.375 -0.625 2.375 0 0 Z " fill="#D6E6F9" transform="translate(621,333)"/>
<path d="M0 0 C2.31 0 4.62 0 7 0 C7.33 0.99 7.66 1.98 8 3 C5.36 3 2.72 3 0 3 C0 2.01 0 1.02 0 0 Z " fill="#9EA7AD" transform="translate(804,324)"/>
<path d="M0 0 C0.33 1.32 0.66 2.64 1 4 C-0.65 4.33 -2.3 4.66 -4 5 C-4.33 3.68 -4.66 2.36 -5 1 C-3.35 0.67 -1.7 0.34 0 0 Z " fill="#ABC4E0" transform="translate(630,334)"/>
<path d="M0 0 C2.6875 0.3125 2.6875 0.3125 5 1 C4.401875 1.28875 3.80375 1.5775 3.1875 1.875 C0.80672208 3.04742026 0.80672208 3.04742026 -2 5 C-4.1875 4.625 -4.1875 4.625 -6 4 C-5.01 3.67 -4.02 3.34 -3 3 C-2.54625 2.46375 -2.0925 1.9275 -1.625 1.375 C-1.08875 0.92125 -0.5525 0.4675 0 0 Z " fill="#808181" transform="translate(758,461)"/>
<path d="M0 0 C1.32 0.33 2.64 0.66 4 1 C3.67 1.99 3.34 2.98 3 4 C3.66 4 4.32 4 5 4 C4.67 4.99 4.34 5.98 4 7 C3.34 6.67 2.68 6.34 2 6 C2 5.01 2 4.02 2 3 C1.34 3 0.68 3 0 3 C0 2.01 0 1.02 0 0 Z " fill="#D1E2F3" transform="translate(604,320)"/>
<path d="M0 0 C-1.98 1.32 -3.96 2.64 -6 4 C-6.66 3.67 -7.32 3.34 -8 3 C-8 2.34 -8 1.68 -8 1 C-2.25 -1.125 -2.25 -1.125 0 0 Z " fill="#898D92" transform="translate(785,452)"/>
<path d="M0 0 C0.33 0 0.66 0 1 0 C1 2.64 1 5.28 1 8 C0.01 8.33 -0.98 8.66 -2 9 C-1.34 6.03 -0.68 3.06 0 0 Z " fill="#BDC2C8" transform="translate(829,398)"/>
</svg>
